<svg width="46" height="46" viewBox="0 0 46 46" fill="none" xmlns="http://www.w3.org/2000/svg">
<path d="M13.4167 42.1666C12.3625 42.1666 11.4601 41.7913 10.7094 41.0406C9.95867 40.2899 9.58332 39.3875 9.58332 38.3333C9.58332 37.2791 9.95867 36.3767 10.7094 35.626C11.4601 34.8753 12.3625 34.5 13.4167 34.5C14.4708 34.5 15.3733 34.8753 16.1239 35.626C16.8746 36.3767 17.25 37.2791 17.25 38.3333C17.25 39.3875 16.8746 40.2899 16.1239 41.0406C15.3733 41.7913 14.4708 42.1666 13.4167 42.1666ZM32.5833 42.1666C31.5292 42.1666 30.6267 41.7913 29.876 41.0406C29.1253 40.2899 28.75 39.3875 28.75 38.3333C28.75 37.2791 29.1253 36.3767 29.876 35.626C30.6267 34.8753 31.5292 34.5 32.5833 34.5C33.6375 34.5 34.5399 34.8753 35.2906 35.626C36.0413 36.3767 36.4167 37.2791 36.4167 38.3333C36.4167 39.3875 36.0413 40.2899 35.2906 41.0406C34.5399 41.7913 33.6375 42.1666 32.5833 42.1666ZM11.7875 11.5L16.3875 21.0833H29.8042L35.075 11.5H11.7875ZM9.96666 7.66665H38.2375C38.9722 7.66665 39.5312 7.99408 39.9146 8.64894C40.2979 9.3038 40.3139 9.96665 39.9625 10.6375L33.1583 22.9041C32.8069 23.543 32.3358 24.0382 31.7448 24.3896C31.1538 24.741 30.5069 24.9166 29.8042 24.9166H15.525L13.4167 28.75H36.4167V32.5833H13.4167C11.9792 32.5833 10.893 31.9524 10.1583 30.6906C9.4236 29.4288 9.39166 28.175 10.0625 26.9291L12.65 22.2333L5.74999 7.66665H1.91666V3.83331H8.14582L9.96666 7.66665Z" fill="#7D4F50"/>
</svg>
