<svg width="85" height="85" viewBox="0 0 85 85" fill="none" xmlns="http://www.w3.org/2000/svg">
<path d="M23.6667 66.0417C25.0007 66.0417 26.1189 65.5905 27.0214 64.688C27.9238 63.7856 28.375 62.6674 28.375 61.3333C28.375 59.9993 27.9238 58.8811 27.0214 57.9786C26.1189 57.0762 25.0007 56.625 23.6667 56.625C22.3326 56.625 21.2144 57.0762 20.312 57.9786C19.4095 58.8811 18.9583 59.9993 18.9583 61.3333C18.9583 62.6674 19.4095 63.7856 20.312 64.688C21.2144 65.5905 22.3326 66.0417 23.6667 66.0417ZM23.6667 47.2083C25.0007 47.2083 26.1189 46.7571 27.0214 45.8547C27.9238 44.9523 28.375 43.834 28.375 42.5C28.375 41.166 27.9238 40.0477 27.0214 39.1453C26.1189 38.2429 25.0007 37.7917 23.6667 37.7917C22.3326 37.7917 21.2144 38.2429 20.312 39.1453C19.4095 40.0477 18.9583 41.166 18.9583 42.5C18.9583 43.834 19.4095 44.9523 20.312 45.8547C21.2144 46.7571 22.3326 47.2083 23.6667 47.2083ZM23.6667 28.375C25.0007 28.375 26.1189 27.9238 27.0214 27.0214C27.9238 26.1189 28.375 25.0007 28.375 23.6667C28.375 22.3326 27.9238 21.2144 27.0214 20.312C26.1189 19.4095 25.0007 18.9583 23.6667 18.9583C22.3326 18.9583 21.2144 19.4095 20.312 20.312C19.4095 21.2144 18.9583 22.3326 18.9583 23.6667C18.9583 25.0007 19.4095 26.1189 20.312 27.0214C21.2144 27.9238 22.3326 28.375 23.6667 28.375ZM37.7917 66.0417H66.0417V56.625H37.7917V66.0417ZM37.7917 47.2083H66.0417V37.7917H37.7917V47.2083ZM37.7917 28.375H66.0417V18.9583H37.7917V28.375ZM9.54167 84.875C6.95208 84.875 4.73524 83.9529 2.89115 82.1089C1.04705 80.2648 0.125 78.0479 0.125 75.4583V9.54167C0.125 6.95208 1.04705 4.73524 2.89115 2.89115C4.73524 1.04705 6.95208 0.125 9.54167 0.125H75.4583C78.0479 0.125 80.2648 1.04705 82.1089 2.89115C83.9529 4.73524 84.875 6.95208 84.875 9.54167V75.4583C84.875 78.0479 83.9529 80.2648 82.1089 82.1089C80.2648 83.9529 78.0479 84.875 75.4583 84.875H9.54167ZM9.54167 75.4583H75.4583V9.54167H9.54167V75.4583Z" fill="#F7F3F5"/>
</svg>
