<svg width="105" height="77" viewBox="0 0 105 77" fill="none" xmlns="http://www.w3.org/2000/svg">
<path d="M24.2499 76.1666C20.3263 76.1666 16.9912 74.7933 14.2447 72.0468C11.4982 69.3003 10.1249 65.9652 10.1249 62.0416H0.708252V10.2499C0.708252 7.66034 1.6303 5.4435 3.4744 3.5994C5.31849 1.7553 7.53534 0.833252 10.1249 0.833252H76.0416V19.6666H90.1666L104.292 38.4999V62.0416H94.8749C94.8749 65.9652 93.5017 69.3003 90.7551 72.0468C88.0086 74.7933 84.6735 76.1666 80.7499 76.1666C76.8263 76.1666 73.4912 74.7933 70.7447 72.0468C67.9982 69.3003 66.6249 65.9652 66.6249 62.0416H38.3749C38.3749 65.9652 37.0017 69.3003 34.2551 72.0468C31.5086 74.7933 28.1735 76.1666 24.2499 76.1666ZM24.2499 66.7499C25.5839 66.7499 26.7022 66.2987 27.6046 65.3963C28.507 64.4938 28.9583 63.3756 28.9583 62.0416C28.9583 60.7076 28.507 59.5893 27.6046 58.6869C26.7022 57.7845 25.5839 57.3333 24.2499 57.3333C22.9159 57.3333 21.7977 57.7845 20.8952 58.6869C19.9928 59.5893 19.5416 60.7076 19.5416 62.0416C19.5416 63.3756 19.9928 64.4938 20.8952 65.3963C21.7977 66.2987 22.9159 66.7499 24.2499 66.7499ZM10.1249 52.6249H13.8916C15.2256 51.2124 16.7558 50.0746 18.4822 49.2114C20.2086 48.3482 22.1312 47.9166 24.2499 47.9166C26.3687 47.9166 28.2912 48.3482 30.0176 49.2114C31.744 50.0746 33.2742 51.2124 34.6083 52.6249H66.6249V10.2499H10.1249V52.6249ZM80.7499 66.7499C82.0839 66.7499 83.2022 66.2987 84.1046 65.3963C85.007 64.4938 85.4583 63.3756 85.4583 62.0416C85.4583 60.7076 85.007 59.5893 84.1046 58.6869C83.2022 57.7845 82.0839 57.3333 80.7499 57.3333C79.4159 57.3333 78.2977 57.7845 77.3952 58.6869C76.4928 59.5893 76.0416 60.7076 76.0416 62.0416C76.0416 63.3756 76.4928 64.4938 77.3952 65.3963C78.2977 66.2987 79.4159 66.7499 80.7499 66.7499ZM76.0416 43.2083H96.052L85.4583 29.0833H76.0416V43.2083Z" fill="#F7F3F5"/>
</svg>
