<svg width="105" height="95" viewBox="0 0 105 95" fill="none" xmlns="http://www.w3.org/2000/svg">
<path d="M14.8335 94.8749V50.7343L6.3585 57.2083L0.708496 49.6749L14.8335 38.8458V24.2499H24.2502V31.6655L52.5002 10.1249L104.292 49.6749L98.6418 57.0905L90.1668 50.7343V94.8749H14.8335ZM24.2502 85.4583H47.7918V66.6249H57.2085V85.4583H80.7502V43.5541L52.5002 22.0135L24.2502 43.5541V85.4583ZM14.8335 19.5416C14.8335 15.618 16.2068 12.2829 18.9533 9.53638C21.6998 6.78985 25.0349 5.41659 28.9585 5.41659C30.2925 5.41659 31.4108 4.96537 32.3132 4.06294C33.2156 3.16051 33.6668 2.04228 33.6668 0.708252H43.0835C43.0835 4.63186 41.7102 7.96693 38.9637 10.7135C36.2172 13.46 32.8821 14.8333 28.9585 14.8333C27.6245 14.8333 26.5062 15.2845 25.6038 16.1869C24.7014 17.0893 24.2502 18.2076 24.2502 19.5416H14.8335Z" fill="#F7F3F5"/>
</svg>
