<svg width="85" height="95" viewBox="0 0 85 95" fill="none" xmlns="http://www.w3.org/2000/svg">
<path d="M37.7917 82.4595V50.2074L9.54167 33.8459V66.098L37.7917 82.4595ZM47.2083 82.4595L75.4583 66.098V33.8459L47.2083 50.2074V82.4595ZM37.7917 93.2886L4.83333 74.3376C3.34236 73.4744 2.1849 72.3365 1.36094 70.924C0.536979 69.5115 0.125 67.9421 0.125 66.2157V28.7845C0.125 27.0581 0.536979 25.4886 1.36094 24.0761C2.1849 22.6636 3.34236 21.5258 4.83333 20.6626L37.7917 1.71154C39.2826 0.848345 40.8521 0.416748 42.5 0.416748C44.1479 0.416748 45.7174 0.848345 47.2083 1.71154L80.1667 20.6626C81.6576 21.5258 82.8151 22.6636 83.6391 24.0761C84.463 25.4886 84.875 27.0581 84.875 28.7845V66.2157C84.875 67.9421 84.463 69.5115 83.6391 70.924C82.8151 72.3365 81.6576 73.4744 80.1667 74.3376L47.2083 93.2886C45.7174 94.1518 44.1479 94.5834 42.5 94.5834C40.8521 94.5834 39.2826 94.1518 37.7917 93.2886ZM61.3333 31.1386L70.3969 25.9595L42.5 9.83342L33.3187 15.1303L61.3333 31.1386ZM42.5 42.0855L51.6813 36.7886L23.7844 20.6626L14.6031 25.9595L42.5 42.0855Z" fill="#F7F3F5"/>
</svg>
