<svg width="39" height="39" viewBox="0 0 39 39" fill="none" xmlns="http://www.w3.org/2000/svg">
<path d="M29.25 35.75C27.8958 35.75 26.7448 35.276 25.7969 34.3281C24.849 33.3802 24.375 32.2292 24.375 30.875C24.375 30.6854 24.3885 30.4891 24.4156 30.2859C24.4427 30.0828 24.4833 29.9 24.5375 29.7375L13.0812 23.075C12.6208 23.4812 12.1062 23.7995 11.5375 24.0297C10.9688 24.2599 10.3729 24.375 9.75 24.375C8.39583 24.375 7.24479 23.901 6.29688 22.9531C5.34896 22.0052 4.875 20.8542 4.875 19.5C4.875 18.1458 5.34896 16.9948 6.29688 16.0469C7.24479 15.099 8.39583 14.625 9.75 14.625C10.3729 14.625 10.9688 14.7401 11.5375 14.9703C12.1062 15.2005 12.6208 15.5187 13.0812 15.925L24.5375 9.2625C24.4833 9.1 24.4427 8.91719 24.4156 8.71406C24.3885 8.51094 24.375 8.31458 24.375 8.125C24.375 6.77083 24.849 5.61979 25.7969 4.67188C26.7448 3.72396 27.8958 3.25 29.25 3.25C30.6042 3.25 31.7552 3.72396 32.7031 4.67188C33.651 5.61979 34.125 6.77083 34.125 8.125C34.125 9.47917 33.651 10.6302 32.7031 11.5781C31.7552 12.526 30.6042 13 29.25 13C28.6271 13 28.0312 12.8849 27.4625 12.6547C26.8937 12.4245 26.3792 12.1062 25.9187 11.7L14.4625 18.3625C14.5167 18.525 14.5573 18.7078 14.5844 18.9109C14.6115 19.1141 14.625 19.3104 14.625 19.5C14.625 19.6896 14.6115 19.8859 14.5844 20.0891C14.5573 20.2922 14.5167 20.475 14.4625 20.6375L25.9187 27.3C26.3792 26.8937 26.8937 26.5755 27.4625 26.3453C28.0312 26.1151 28.6271 26 29.25 26C30.6042 26 31.7552 26.474 32.7031 27.4219C33.651 28.3698 34.125 29.5208 34.125 30.875C34.125 32.2292 33.651 33.3802 32.7031 34.3281C31.7552 35.276 30.6042 35.75 29.25 35.75ZM29.25 9.75C29.7104 9.75 30.0964 9.59427 30.4078 9.28281C30.7193 8.97135 30.875 8.58542 30.875 8.125C30.875 7.66458 30.7193 7.27865 30.4078 6.96719C30.0964 6.65573 29.7104 6.5 29.25 6.5C28.7896 6.5 28.4036 6.65573 28.0922 6.96719C27.7807 7.27865 27.625 7.66458 27.625 8.125C27.625 8.58542 27.7807 8.97135 28.0922 9.28281C28.4036 9.59427 28.7896 9.75 29.25 9.75ZM9.75 21.125C10.2104 21.125 10.5964 20.9693 10.9078 20.6578C11.2193 20.3464 11.375 19.9604 11.375 19.5C11.375 19.0396 11.2193 18.6536 10.9078 18.3422C10.5964 18.0307 10.2104 17.875 9.75 17.875C9.28958 17.875 8.90365 18.0307 8.59219 18.3422C8.28073 18.6536 8.125 19.0396 8.125 19.5C8.125 19.9604 8.28073 20.3464 8.59219 20.6578C8.90365 20.9693 9.28958 21.125 9.75 21.125ZM29.25 32.5C29.7104 32.5 30.0964 32.3443 30.4078 32.0328C30.7193 31.7214 30.875 31.3354 30.875 30.875C30.875 30.4146 30.7193 30.0286 30.4078 29.7172C30.0964 29.4057 29.7104 29.25 29.25 29.25C28.7896 29.25 28.4036 29.4057 28.0922 29.7172C27.7807 30.0286 27.625 30.4146 27.625 30.875C27.625 31.3354 27.7807 31.7214 28.0922 32.0328C28.4036 32.3443 28.7896 32.5 29.25 32.5Z" fill="#000000"/>
</svg>
