<svg width="39" height="39" viewBox="0 0 39 39" fill="none" xmlns="http://www.w3.org/2000/svg">
<path d="M19.2156 35.75C18.5656 35.75 17.9427 35.6281 17.3469 35.3844C16.751 35.1406 16.2229 34.7885 15.7625 34.3281L7.475 26L8.69375 24.7406C9.12708 24.3073 9.6349 24.0161 10.2172 23.8672C10.7995 23.7182 11.375 23.725 11.9437 23.8875L14.625 24.6594V11.375C14.625 10.9146 14.7807 10.5286 15.0922 10.2172C15.4036 9.90573 15.7896 9.75 16.25 9.75C16.7104 9.75 17.0964 9.90573 17.4078 10.2172C17.7193 10.5286 17.875 10.9146 17.875 11.375V28.9656L13.9344 27.8687L18.0781 32.0125C18.2135 32.1479 18.3828 32.263 18.5859 32.3578C18.7891 32.4526 18.999 32.5 19.2156 32.5H26C26.8937 32.5 27.6589 32.1818 28.2953 31.5453C28.9318 30.9089 29.25 30.1437 29.25 29.25V22.75C29.25 22.2896 29.4057 21.9036 29.7172 21.5922C30.0286 21.2807 30.4146 21.125 30.875 21.125C31.3354 21.125 31.7214 21.2807 32.0328 21.5922C32.3443 21.9036 32.5 22.2896 32.5 22.75V29.25C32.5 31.0375 31.8635 32.5677 30.5906 33.8406C29.3177 35.1135 27.7875 35.75 26 35.75H19.2156ZM19.5 24.375V17.875C19.5 17.4146 19.6557 17.0286 19.9672 16.7172C20.2786 16.4057 20.6646 16.25 21.125 16.25C21.5854 16.25 21.9714 16.4057 22.2828 16.7172C22.5943 17.0286 22.75 17.4146 22.75 17.875V24.375H19.5ZM24.375 24.375V19.5C24.375 19.0396 24.5307 18.6536 24.8422 18.3422C25.1536 18.0307 25.5396 17.875 26 17.875C26.4604 17.875 26.8464 18.0307 27.1578 18.3422C27.4693 18.6536 27.625 19.0396 27.625 19.5V24.375H24.375ZM35.75 11.375H27.625V8.9375H32.3375C30.55 7.36667 28.5594 6.16146 26.3656 5.32187C24.1719 4.48229 21.8833 4.0625 19.5 4.0625C17.1167 4.0625 14.8281 4.48229 12.6344 5.32187C10.4406 6.16146 8.45 7.36667 6.6625 8.9375H11.375V11.375H3.25V3.25H5.6875V6.54062C7.6375 4.94271 9.79062 3.72396 12.1469 2.88437C14.5031 2.04479 16.9542 1.625 19.5 1.625C22.0458 1.625 24.4969 2.04479 26.8531 2.88437C29.2094 3.72396 31.3625 4.94271 33.3125 6.54062V3.25H35.75V11.375Z" fill="#000000"/>
</svg>
